<svg 
 xmlns="http://www.w3.org/2000/svg"
 xmlns:xlink="http://www.w3.org/1999/xlink"
 width="23px" height="32px">
<path fill-rule="evenodd"  fill="rgb(0, 35, 65)"
 d="M21.060,17.062 L12.296,31.518 C11.935,32.117 11.056,32.126 10.683,31.531 L1.690,17.213 C0.584,15.449 -0.000,13.414 -0.000,11.329 C-0.000,5.157 5.081,0.137 11.328,0.137 C17.575,0.137 22.656,5.157 22.656,11.329 C22.656,13.351 22.103,15.335 21.060,17.062 ZM11.328,5.720 C8.205,5.720 5.651,8.242 5.651,11.329 C5.651,14.390 8.160,16.937 11.328,16.937 C14.530,16.937 17.005,14.362 17.005,11.329 C17.005,8.242 14.451,5.720 11.328,5.720 ZM11.328,15.059 C9.242,15.059 7.552,13.396 7.552,11.329 C7.552,9.271 9.245,7.598 11.328,7.598 C13.411,7.598 15.104,9.271 15.104,11.329 C15.104,13.365 13.451,15.059 11.328,15.059 Z"/>
</svg>