<svg 
 xmlns="http://www.w3.org/2000/svg"
 xmlns:xlink="http://www.w3.org/1999/xlink"
 width="21px" height="17px">
<path fill-rule="evenodd"  fill="rgb(0, 35, 65)"
 d="M20.471,10.150 C19.309,14.183 16.557,16.998 13.777,16.998 C13.605,16.998 13.430,16.987 13.260,16.964 C13.102,16.943 12.962,16.857 12.875,16.728 C12.787,16.599 12.762,16.440 12.805,16.291 L13.311,14.535 C13.369,14.332 13.545,14.181 13.759,14.151 C16.075,13.816 17.237,10.849 17.721,9.129 C17.219,9.340 16.572,9.513 15.796,9.513 C15.294,9.513 14.778,9.439 14.261,9.295 C13.002,8.944 11.961,8.149 11.328,7.059 C10.689,5.957 10.531,4.679 10.881,3.461 C11.469,1.424 13.399,0.001 15.576,0.001 C15.583,0.001 15.590,0.001 15.598,0.001 C17.362,0.067 18.733,0.737 19.673,1.989 C21.353,4.228 21.153,7.785 20.471,10.150 ZM3.082,16.998 C2.910,16.998 2.735,16.987 2.565,16.964 C2.407,16.943 2.267,16.857 2.180,16.728 C2.092,16.599 2.067,16.440 2.110,16.291 L2.616,14.535 C2.674,14.332 2.850,14.181 3.065,14.151 C5.380,13.816 6.543,10.849 7.026,9.129 C6.524,9.340 5.877,9.513 5.101,9.513 C4.599,9.513 4.083,9.439 3.566,9.295 C2.307,8.944 1.266,8.149 0.633,7.059 C-0.006,5.957 -0.164,4.679 0.186,3.461 C0.774,1.424 2.704,0.000 4.881,0.000 C4.888,0.000 4.895,0.001 4.903,0.001 C6.667,0.067 8.038,0.736 8.978,1.989 C10.657,4.228 10.458,7.785 9.776,10.150 C8.614,14.183 5.862,16.998 3.082,16.998 Z"/>
</svg>