<svg 
 xmlns="http://www.w3.org/2000/svg"
 xmlns:xlink="http://www.w3.org/1999/xlink"
 width="59px" height="45px">
<path fill-rule="evenodd"  opacity="0.549" fill="rgb(87, 167, 39)"
 d="M58.878,2.961 L47.918,43.193 C47.664,44.125 46.688,44.663 45.760,44.383 L28.254,39.088 L24.949,37.551 C25.757,36.678 26.566,35.805 27.380,34.938 L31.461,30.574 L35.558,26.226 L37.609,24.054 L39.667,21.889 L43.782,17.559 L47.913,13.243 L52.046,8.930 C53.421,7.489 54.812,6.064 56.194,4.631 L56.199,4.626 C56.561,4.250 56.633,3.662 56.338,3.204 C55.993,2.667 55.277,2.511 54.738,2.855 L48.621,6.758 C47.601,7.408 46.584,8.062 45.559,8.705 L42.491,10.642 L39.423,12.579 C38.399,13.223 37.380,13.875 36.352,14.512 L30.194,18.351 C29.169,18.993 28.139,19.627 27.109,20.261 L24.019,22.164 C22.988,22.797 21.961,23.435 20.926,24.062 L17.825,25.948 C16.792,26.578 15.759,27.207 14.721,27.828 L11.610,29.699 C10.507,30.356 9.404,31.013 8.298,31.667 L1.288,29.846 C-0.262,29.443 -0.465,27.332 0.981,26.644 L54.421,0.788 C55.001,0.451 55.515,0.229 55.970,0.097 C57.723,-0.416 59.356,1.205 58.878,2.961 ZM16.369,30.405 C17.373,29.729 18.382,29.062 19.390,28.394 L22.416,26.390 C23.422,25.720 24.437,25.061 25.448,24.398 L28.484,22.410 C29.495,21.747 30.507,21.085 31.524,20.430 L37.617,16.488 C38.630,15.829 39.653,15.183 40.671,14.530 L43.728,12.576 L46.786,10.623 C47.049,10.453 47.315,10.286 47.579,10.117 L46.163,11.557 L41.971,15.813 L37.763,20.054 L35.659,22.175 L33.548,24.289 L29.323,28.513 L25.081,32.722 C23.669,34.127 22.243,35.518 20.824,36.917 C20.702,37.038 20.591,37.186 20.507,37.348 C20.077,38.182 20.408,39.205 21.245,39.633 L21.307,39.665 L21.428,39.727 C21.366,39.793 21.350,39.838 21.396,39.852 L22.112,40.077 L24.002,41.044 L20.014,44.472 C18.962,45.376 17.341,45.084 16.674,43.870 L11.192,33.889 C11.912,33.400 12.633,32.912 13.355,32.425 L16.369,30.405 Z"/>
</svg>